<svg xmlns="http://www.w3.org/2000/svg" viewBox="0 0 1240 800" font-family="'Segoe UI', system-ui, sans-serif">
  <rect width="1240" height="800" fill="#ffffff"/>
  <!-- top bar -->
  <rect x="0" y="0" width="1240" height="56" fill="#ffffff" stroke="#e3e8ea"/>
  <circle cx="92" cy="28" r="13" fill="#FBAF42"/><path d="M85 22l7 8 7-8h-4.5l-2.5 3-2.5-3z" fill="#1c1c1e"/><rect x="89.5" y="30" width="5" height="8" rx="2" fill="#1c1c1e"/>
  <text x="116" y="33" font-size="15" font-weight="700" fill="#1c1c1e">Yres</text>
  <text x="180" y="33" font-size="13" fill="#8a9196">Admin / Firewall</text>
  <!-- env switcher (top-right) -->
  <rect x="940" y="14" width="170" height="28" rx="6" fill="#f6f9f9" stroke="#e3e8ea"/>
  <text x="954" y="32" font-size="12" fill="#2b2b2e">Acme B.V. &#183; Productie &#9662;</text>
  <circle cx="1140" cy="28" r="14" fill="#FEF1DD"/><text x="1140" y="32" font-size="11" fill="#e89a1f" text-anchor="middle">JD</text>

  <!-- left icon rail (sections) -->
  <rect x="0" y="56" width="68" height="744" fill="#f6f9f9" stroke="#e3e8ea"/>
  <g font-size="9" text-anchor="middle" fill="#8a9196">
    <g><rect x="14" y="78" width="40" height="40" rx="9" fill="#f6f9f9"/><text x="34" y="103" fill="#8a9196">Home</text></g>
    <g><rect x="14" y="136" width="40" height="40" rx="9" fill="#f6f9f9"/><text x="34" y="161" fill="#8a9196">Sources</text></g>
    <g><rect x="14" y="194" width="40" height="40" rx="9" fill="#f6f9f9"/><text x="34" y="219" fill="#8a9196">Load</text></g>
    <g><rect x="14" y="252" width="40" height="40" rx="9" fill="#f6f9f9"/><text x="34" y="277" fill="#8a9196">Engineer</text></g>
    <g><rect x="14" y="310" width="40" height="40" rx="9" fill="#f6f9f9"/><text x="34" y="335" fill="#8a9196">Projects</text></g>
    <g><rect x="14" y="368" width="40" height="40" rx="9" fill="#FBAF42"/><text x="34" y="393" fill="#1c1c1e">Admin</text></g>
  </g>

  <!-- sub-link sidebar (Admin section) -->
  <rect x="68" y="56" width="148" height="744" fill="#ffffff" stroke="#e3e8ea"/>
  <text x="84" y="84" font-size="11" font-weight="700" fill="#8a9196">ADMIN</text>
  <g font-size="11.5" fill="#5b6166">
    <text x="88" y="111">Panel</text>
    <text x="88" y="138">Announcements</text>
    <text x="88" y="162">Update environments</text>
    <text x="88" y="186">Rebuild</text>
    <text x="88" y="210">Theme</text>
    <text x="88" y="234">Audit logs</text>
    <text x="88" y="258">Databases</text>
    <text x="88" y="282">Secrets</text>
    <text x="88" y="306">Power BI credentials</text>
    <rect x="76" y="318" width="132" height="26" rx="6" fill="#FEF1DD"/>
    <text x="88" y="335" font-weight="600" fill="#e89a1f">Firewall</text>
    <text x="88" y="362">Settings</text>
  </g>
  <line x1="76" y1="378" x2="208" y2="378" stroke="#e3e8ea"/>
  <text x="84" y="398" font-size="10" font-weight="700" fill="#8a9196">ENVIRONMENT ADMIN</text>
  <g font-size="11.5" fill="#5b6166">
    <text x="88" y="422">DWH logs</text>
    <rect x="148" y="412" width="22" height="14" rx="4" fill="#fde8e8"/>
    <text x="159" y="422" font-size="9" font-weight="700" fill="#e03131" text-anchor="middle">3</text>
    <text x="88" y="446">Health checks</text>
    <text x="88" y="470">Azure resources</text>
    <text x="88" y="494">DWH settings</text>
  </g>

  <!-- page title -->
  <text x="244" y="92" font-size="20" font-weight="700" fill="#1c1c1e">Firewall</text>
  <text x="244" y="114" font-size="12.5" fill="#8a9196">IP allow/deny rules controlling access to the IRIS_DWH database &#183; Acme B.V. / Productie</text>

  <!-- ===================== MAIN ===================== -->

  <!-- Firewall rules table card -->
  <rect x="244" y="140" width="700" height="430" rx="8" fill="#ffffff" stroke="#e3e8ea"/>
  <!-- card title row + Create -->
  <text x="264" y="174" font-size="14" font-weight="700" fill="#1c1c1e">Firewall</text>
  <rect x="828" y="154" width="96" height="32" rx="6" fill="#FBAF42"/>
  <text x="876" y="174" font-size="12.5" font-weight="600" fill="#1c1c1e" text-anchor="middle">Create</text>

  <!-- table header band -->
  <rect x="244" y="200" width="700" height="34" fill="#eef3f4"/>
  <g font-size="11.5" font-weight="600" fill="#5b6166">
    <text x="264" y="222">Name</text>
    <text x="430" y="222">Value</text>
    <text x="600" y="222">Type</text>
    <text x="680" y="222">Grant</text>
    <text x="790" y="222">CreatedAt</text>
  </g>

  <!-- rows -->
  <g font-size="12" fill="#2b2b2e">
    <text x="264" y="256">Office HQ Utrecht</text>
    <text x="430" y="256">94.124.16.0/24</text>
    <text x="600" y="256">ip</text>
    <rect x="680" y="244" width="58" height="18" rx="4" fill="#e6f4ea"/>
    <text x="709" y="257" font-size="11" font-weight="600" fill="#2f9e44" text-anchor="middle">allow</text>
    <text x="790" y="256">2026-03-14</text>
    <line x1="244" y1="266" x2="944" y2="266" stroke="#eef3f4"/>

    <text x="264" y="288">Azure DevOps agent</text>
    <text x="430" y="288">20.105.241.13</text>
    <text x="600" y="288">ip</text>
    <rect x="680" y="276" width="58" height="18" rx="4" fill="#e6f4ea"/>
    <text x="709" y="289" font-size="11" font-weight="600" fill="#2f9e44" text-anchor="middle">allow</text>
    <text x="790" y="288">2026-03-14</text>
    <line x1="244" y1="298" x2="944" y2="298" stroke="#eef3f4"/>

    <text x="264" y="320">Power BI gateway</text>
    <text x="430" y="320">51.144.56.7</text>
    <text x="600" y="320">ip</text>
    <rect x="680" y="308" width="58" height="18" rx="4" fill="#e6f4ea"/>
    <text x="709" y="321" font-size="11" font-weight="600" fill="#2f9e44" text-anchor="middle">allow</text>
    <text x="790" y="320">2026-04-02</text>
    <line x1="244" y1="330" x2="944" y2="330" stroke="#eef3f4"/>

    <text x="264" y="352">Remote analyst VPN</text>
    <text x="430" y="352">145.97.32.0/27</text>
    <text x="600" y="352">ip</text>
    <rect x="680" y="340" width="58" height="18" rx="4" fill="#e6f4ea"/>
    <text x="709" y="353" font-size="11" font-weight="600" fill="#2f9e44" text-anchor="middle">allow</text>
    <text x="790" y="352">2026-04-19</text>
    <line x1="244" y1="362" x2="944" y2="362" stroke="#eef3f4"/>

    <text x="264" y="384">Blocked scanner range</text>
    <text x="430" y="384">203.0.113.0/24</text>
    <text x="600" y="384">ip</text>
    <rect x="680" y="372" width="58" height="18" rx="4" fill="#fde8e8"/>
    <text x="709" y="385" font-size="11" font-weight="600" fill="#e03131" text-anchor="middle">deny</text>
    <text x="790" y="384">2026-05-08</text>
    <line x1="244" y1="394" x2="944" y2="394" stroke="#eef3f4"/>

    <text x="264" y="416">Legacy CRM host</text>
    <text x="430" y="416">185.62.190.41</text>
    <text x="600" y="416">ip</text>
    <rect x="680" y="404" width="58" height="18" rx="4" fill="#fde8e8"/>
    <text x="709" y="417" font-size="11" font-weight="600" fill="#e03131" text-anchor="middle">deny</text>
    <text x="790" y="416">2026-05-22</text>
  </g>

  <!-- trailing kebab actions column hint -->
  <g fill="#8a9196">
    <circle cx="922" cy="252" r="1.6"/><circle cx="922" cy="256" r="1.6"/><circle cx="922" cy="260" r="1.6"/>
    <circle cx="922" cy="284" r="1.6"/><circle cx="922" cy="288" r="1.6"/><circle cx="922" cy="292" r="1.6"/>
    <circle cx="922" cy="316" r="1.6"/><circle cx="922" cy="320" r="1.6"/><circle cx="922" cy="324" r="1.6"/>
    <circle cx="922" cy="348" r="1.6"/><circle cx="922" cy="352" r="1.6"/><circle cx="922" cy="356" r="1.6"/>
    <circle cx="922" cy="380" r="1.6"/><circle cx="922" cy="384" r="1.6"/><circle cx="922" cy="388" r="1.6"/>
    <circle cx="922" cy="412" r="1.6"/><circle cx="922" cy="416" r="1.6"/><circle cx="922" cy="420" r="1.6"/>
  </g>

  <!-- footer note inside card -->
  <line x1="244" y1="438" x2="944" y2="438" stroke="#eef3f4"/>
  <text x="264" y="460" font-size="11" fill="#8a9196">6 rules &#183; per-row kebab menu = Edit / Delete &#183; CIDR ranges (e.g. /24, /27) accepted</text>

  <!-- Create rule modal preview (overlapping inset, schematic) -->
  <rect x="690" y="470" width="288" height="282" rx="8" fill="#ffffff" stroke="#e3e8ea"/>
  <rect x="690" y="470" width="288" height="36" rx="8" fill="#f6f9f9"/>
  <text x="708" y="493" font-size="13" font-weight="700" fill="#1c1c1e">Create firewall rule</text>
  <text x="962" y="493" font-size="14" fill="#8a9196" text-anchor="end">&#215;</text>

  <!-- Name field -->
  <text x="708" y="528" font-size="11" fill="#8a9196">Name</text>
  <rect x="708" y="534" width="252" height="32" rx="6" fill="#ffffff" stroke="#e3e8ea"/>
  <text x="720" y="555" font-size="12" fill="#8a9196">Office HQ Utrecht</text>

  <!-- Ip address field -->
  <text x="708" y="588" font-size="11" fill="#8a9196">Ip address</text>
  <rect x="708" y="594" width="252" height="32" rx="6" fill="#ffffff" stroke="#e3e8ea"/>
  <text x="720" y="615" font-size="12" fill="#8a9196">94.124.16.0/24</text>

  <!-- Grant select -->
  <text x="708" y="648" font-size="11" fill="#8a9196">Grant</text>
  <rect x="708" y="654" width="252" height="32" rx="6" fill="#ffffff" stroke="#e3e8ea"/>
  <text x="720" y="675" font-size="12" fill="#2b2b2e">allow</text>
  <text x="948" y="675" font-size="12" fill="#8a9196" text-anchor="end">&#9662;</text>

  <!-- modal actions -->
  <rect x="708" y="704" width="110" height="32" rx="6" fill="#ffffff" stroke="#e3e8ea"/>
  <text x="763" y="724" font-size="12" font-weight="600" fill="#2b2b2e" text-anchor="middle">Cancel</text>
  <rect x="850" y="704" width="110" height="32" rx="6" fill="#FBAF42"/>
  <text x="905" y="724" font-size="12" font-weight="600" fill="#1c1c1e" text-anchor="middle">Save</text>

  <!-- ===================== CALLOUTS ===================== -->
  <!-- 1: Admin rail active -->
  <circle cx="34" cy="388" r="11" fill="#FBAF42"/><text x="34" y="392" font-size="12" font-weight="700" fill="#1c1c1e" text-anchor="middle">1</text>
  <!-- 2: Firewall sub-link -->
  <circle cx="196" cy="331" r="11" fill="#FBAF42"/><text x="196" y="335" font-size="12" font-weight="700" fill="#1c1c1e" text-anchor="middle">2</text>
  <!-- 3: Create button -->
  <circle cx="828" cy="170" r="11" fill="#FBAF42"/><text x="828" y="174" font-size="12" font-weight="700" fill="#1c1c1e" text-anchor="middle">3</text>
  <!-- 4: Rules table -->
  <circle cx="264" cy="213" r="11" fill="#FBAF42"/><text x="264" y="217" font-size="12" font-weight="700" fill="#1c1c1e" text-anchor="middle">4</text>
  <!-- 5: Grant allow/deny chips -->
  <circle cx="709" cy="385" r="11" fill="#FBAF42"/><text x="709" y="389" font-size="12" font-weight="700" fill="#1c1c1e" text-anchor="middle">5</text>
  <!-- 6: Create rule modal -->
  <circle cx="690" cy="488" r="11" fill="#FBAF42"/><text x="690" y="492" font-size="12" font-weight="700" fill="#1c1c1e" text-anchor="middle">6</text>

  <!-- callout legend -->
  <text x="244" y="612" font-size="10.5" fill="#8a9196">1 Admin section (rail)  &#183;  2 Firewall sub-link  &#183;  3 Create &#8594; opens the create-rule modal</text>
  <text x="244" y="630" font-size="10.5" fill="#8a9196">4 Firewall rules table: Name / Value / Type / Grant / CreatedAt  &#183;  5 Grant chip allow (green) vs deny (red)</text>
  <text x="244" y="648" font-size="10.5" fill="#8a9196">6 Create rule modal: Name, Ip address (IPv4 or CIDR), Grant select (allow / deny); Type defaults to &#8220;ip&#8221;</text>
</svg>
