<svg xmlns="http://www.w3.org/2000/svg" viewBox="0 0 1240 800" font-family="'Segoe UI', system-ui, sans-serif">
  <rect width="1240" height="800" fill="#ffffff"/>
  <!-- top bar -->
  <rect x="0" y="0" width="1240" height="56" fill="#ffffff" stroke="#e3e8ea"/>
  <circle cx="92" cy="28" r="13" fill="#FBAF42"/><path d="M85 22l7 8 7-8h-4.5l-2.5 3-2.5-3z" fill="#1c1c1e"/><rect x="89.5" y="30" width="5" height="8" rx="2" fill="#1c1c1e"/>
  <text x="116" y="33" font-size="15" font-weight="700" fill="#1c1c1e">Yres</text>
  <text x="180" y="33" font-size="13" fill="#8a9196">Home · Dashboard</text>
  <!-- env switcher (top-right) -->
  <rect x="940" y="14" width="170" height="28" rx="6" fill="#f6f9f9" stroke="#e3e8ea"/>
  <text x="954" y="32" font-size="12" fill="#2b2b2e">Acme B.V. · Productie ▾</text>
  <circle cx="1140" cy="28" r="14" fill="#FEF1DD"/><text x="1140" y="32" font-size="11" fill="#e89a1f" text-anchor="middle">JD</text>

  <!-- left icon rail (sections); active = Home -->
  <rect x="0" y="56" width="68" height="744" fill="#f6f9f9" stroke="#e3e8ea"/>
  <g font-size="9" text-anchor="middle" fill="#8a9196">
    <g><rect x="14" y="78" width="40" height="40" rx="9" fill="#FBAF42"/><text x="34" y="103" fill="#1c1c1e">Home</text></g>
    <g><rect x="14" y="136" width="40" height="40" rx="9" fill="#f6f9f9"/><text x="34" y="161" fill="#8a9196">Sources</text></g>
    <g><rect x="14" y="194" width="40" height="40" rx="9" fill="#f6f9f9"/><text x="34" y="219" fill="#8a9196">Load</text></g>
    <g><rect x="14" y="252" width="40" height="40" rx="9" fill="#f6f9f9"/><text x="34" y="277" fill="#8a9196">Engineer</text></g>
    <g><rect x="14" y="310" width="40" height="40" rx="9" fill="#f6f9f9"/><text x="34" y="335" fill="#8a9196">Projects</text></g>
    <g><rect x="14" y="368" width="40" height="40" rx="9" fill="#f6f9f9"/><text x="34" y="393" fill="#8a9196">Admin</text></g>
  </g>

  <!-- sub-sidebar (Home section) -->
  <rect x="68" y="56" width="118" height="744" fill="#ffffff" stroke="#e3e8ea"/>
  <text x="84" y="84" font-size="11" font-weight="700" fill="#8a9196" letter-spacing="0.5">HOME</text>
  <rect x="76" y="96" width="102" height="28" rx="6" fill="#FEF1DD"/>
  <text x="88" y="114" font-size="11.5" font-weight="600" fill="#e89a1f">Dashboard</text>
  <text x="88" y="146" font-size="11.5" fill="#2b2b2e">Power BI dashboard</text>

  <!-- page title -->
  <text x="206" y="92" font-size="20" font-weight="700" fill="#1c1c1e">Home dashboard</text>
  <text x="206" y="114" font-size="12.5" fill="#8a9196">Welcome overview · quick-nav, monitored jobs, recent errors and load history — Acme B.V. / Productie</text>

  <!-- ================= MAIN ================= -->

  <!-- (1) HomeNav quick-nav tile row -->
  <g>
    <rect x="206" y="130" width="187" height="48" rx="8" fill="#ffffff" stroke="#e3e8ea"/>
    <text x="299.5" y="159" font-size="12.5" font-weight="600" fill="#2b2b2e" text-anchor="middle">Admin</text>
    <rect x="403" y="130" width="187" height="48" rx="8" fill="#ffffff" stroke="#e3e8ea"/>
    <text x="496.5" y="159" font-size="12.5" font-weight="600" fill="#2b2b2e" text-anchor="middle">Projects</text>
    <rect x="600" y="130" width="187" height="48" rx="8" fill="#ffffff" stroke="#e3e8ea"/>
    <text x="693.5" y="159" font-size="12.5" font-weight="600" fill="#2b2b2e" text-anchor="middle">Data sources</text>
    <rect x="797" y="130" width="187" height="48" rx="8" fill="#ffffff" stroke="#e3e8ea"/>
    <text x="890.5" y="159" font-size="12.5" font-weight="600" fill="#2b2b2e" text-anchor="middle">Load management</text>
    <rect x="994" y="130" width="200" height="48" rx="8" fill="#ffffff" stroke="#e3e8ea"/>
    <text x="1094" y="159" font-size="12.5" font-weight="600" fill="#2b2b2e" text-anchor="middle">Data engineering</text>
  </g>

  <!-- LEFT column: welcome + announcements -->
  <!-- (2) Welcome card -->
  <rect x="206" y="196" width="478" height="64" rx="8" fill="#f6f9f9" stroke="#e3e8ea"/>
  <text x="226" y="224" font-size="18" font-weight="700" fill="#1c1c1e">Welcome, Jan de Vries</text>
  <text x="226" y="246" font-size="12" fill="#8a9196">You are signed in to the Productie environment.</text>

  <!-- (3) Announcements column -->
  <rect x="206" y="272" width="478" height="118" rx="8" fill="#ffffff" stroke="#e3e8ea"/>
  <rect x="206" y="272" width="5" height="118" rx="2" fill="#FBAF42"/>
  <text x="226" y="296" font-size="11" font-weight="700" fill="#e89a1f" letter-spacing="0.5">ANNOUNCEMENT</text>
  <text x="226" y="318" font-size="13" font-weight="600" fill="#1c1c1e">Yres upgraded to v1.55</text>
  <text x="226" y="340" font-size="11.5" fill="#2b2b2e">Shared integration runtimes are now available. Review your</text>
  <text x="226" y="356" font-size="11.5" fill="#2b2b2e">scheduled triggers after the maintenance window.</text>
  <text x="226" y="380" font-size="10.5" fill="#8a9196">Posted 22 Jun 2026 · Plainwater</text>

  <!-- RIGHT column: accordions + at-a-glance tiles -->
  <!-- (4) Monitored jobs accordion -->
  <rect x="700" y="196" width="494" height="44" rx="8" fill="#ffffff" stroke="#e3e8ea"/>
  <path d="M714 212a6 6 0 1 1 0 12 6 6 0 0 1 0-12z" fill="none" stroke="#8a9196" stroke-width="1.5"/>
  <path d="M709 218h2l1.5-3 2 5 1.5-2h3" fill="none" stroke="#e03131" stroke-width="1.3"/>
  <text x="732" y="223" font-size="13" font-weight="600" fill="#1c1c1e">Monitored jobs and pipelines · Productie</text>
  <text x="1178" y="223" font-size="13" fill="#8a9196" text-anchor="end">▾</text>
  <!-- expanded monitored-jobs body -->
  <rect x="700" y="244" width="494" height="80" rx="8" fill="#f6f9f9" stroke="#e3e8ea"/>
  <circle cx="722" cy="270" r="5" fill="#1c7ed6"/>
  <text x="736" y="274" font-size="11.5" fill="#2b2b2e">GetMetaData - AFAS_Prod</text>
  <rect x="1102" y="261" width="76" height="18" rx="4" fill="#e1ecf8"/>
  <text x="1140" y="274" font-size="10.5" fill="#1c7ed6" text-anchor="middle">Running</text>
  <circle cx="722" cy="300" r="5" fill="#2f9e44"/>
  <text x="736" y="304" font-size="11.5" fill="#2b2b2e">Dynamic Workflow YRES - ExactOnline</text>
  <rect x="1090" y="291" width="88" height="18" rx="4" fill="#e6f4ea"/>
  <text x="1134" y="304" font-size="10.5" fill="#2f9e44" text-anchor="middle">Succeeded</text>

  <!-- (5) Error logs (3 days) accordion -->
  <rect x="700" y="334" width="494" height="44" rx="8" fill="#ffffff" stroke="#e3e8ea"/>
  <path d="M709 360l5-9 5 9z" fill="none" stroke="#f08c00" stroke-width="1.4"/>
  <rect x="713.4" y="354" width="1.2" height="4" fill="#f08c00"/><rect x="713.4" y="359.5" width="1.2" height="1.2" fill="#f08c00"/>
  <text x="730" y="361" font-size="13" font-weight="600" fill="#1c1c1e">Error logs (3 days)</text>
  <rect x="1118" y="347" width="22" height="18" rx="9" fill="#fde8e8"/>
  <text x="1129" y="360" font-size="10.5" font-weight="700" fill="#e03131" text-anchor="middle">2</text>
  <text x="1178" y="361" font-size="13" fill="#8a9196" text-anchor="end">▾</text>

  <!-- at-a-glance status tiles: load statuses / PowerBI refreshes / persisted views -->
  <g>
    <rect x="700" y="392" width="158" height="58" rx="8" fill="#ffffff" stroke="#e3e8ea"/>
    <text x="714" y="412" font-size="10.5" font-weight="700" fill="#8a9196" letter-spacing="0.3">LOAD STATUSES</text>
    <text x="714" y="436" font-size="17" font-weight="700" fill="#2f9e44">51 ok</text>
    <text x="772" y="436" font-size="11.5" fill="#e03131">· 1 failed</text>

    <rect x="868" y="392" width="158" height="58" rx="8" fill="#ffffff" stroke="#e3e8ea"/>
    <text x="882" y="412" font-size="10.5" font-weight="700" fill="#8a9196" letter-spacing="0.3">POWERBI REFRESHES</text>
    <text x="882" y="436" font-size="17" font-weight="700" fill="#1c1c1e">3</text>
    <rect x="908" y="423" width="64" height="18" rx="4" fill="#e6f4ea"/>
    <text x="940" y="436" font-size="10.5" fill="#2f9e44" text-anchor="middle">Succeeded</text>

    <rect x="1036" y="392" width="158" height="58" rx="8" fill="#ffffff" stroke="#e3e8ea"/>
    <text x="1050" y="412" font-size="10.5" font-weight="700" fill="#8a9196" letter-spacing="0.3">PERSISTED VIEWS</text>
    <text x="1050" y="436" font-size="17" font-weight="700" fill="#1c1c1e">12</text>
    <text x="1082" y="436" font-size="11.5" fill="#8a9196">materialised</text>
  </g>

  <!-- (6) Load history table region -->
  <text x="206" y="430" font-size="15" font-weight="700" fill="#1c1c1e">Load history</text>
  <rect x="430" y="416" width="150" height="22" rx="6" fill="#ffffff" stroke="#e3e8ea"/>
  <text x="442" y="431" font-size="10.5" fill="#8a9196">Filter: Last 24h ▾</text>

  <!-- source accordion row 1: AFAS_Prod (failed present) -->
  <rect x="206" y="466" width="988" height="36" rx="8" fill="#ffffff" stroke="#e3e8ea"/>
  <text x="224" y="488" font-size="12" fill="#8a9196">▾</text>
  <rect x="240" y="474" width="50" height="20" rx="6" fill="#e03131"/>
  <text x="265" y="489" font-size="11" font-weight="700" fill="#ffffff" text-anchor="middle">!</text>
  <text x="302" y="488" font-size="12.5" font-weight="600" fill="#1c1c1e">AFAS_Prod</text>
  <text x="1178" y="488" font-size="11" fill="#8a9196" text-anchor="end">Succeeded: 18 | Running: 1 | Failed: 1</text>

  <!-- expanded table for AFAS_Prod -->
  <rect x="206" y="506" width="988" height="168" rx="8" fill="#ffffff" stroke="#e3e8ea"/>
  <!-- table header -->
  <rect x="206" y="506" width="988" height="34" rx="8" fill="#eef3f4"/>
  <rect x="206" y="530" width="988" height="10" fill="#eef3f4"/>
  <g font-size="11.5" font-weight="600" fill="#5b6166">
    <text x="226" y="527">Target</text>
    <text x="470" y="527">Status</text>
    <text x="600" y="527">Load Date</text>
    <text x="780" y="527">Load type</text>
    <text x="900" y="527">Copied</text>
    <text x="980" y="527">New</text>
    <text x="1060" y="527">Delta</text>
    <text x="1160" y="527" text-anchor="end">Actions</text>
  </g>
  <!-- rows -->
  <g font-size="11.5" fill="#2b2b2e">
    <!-- row 1 -->
    <text x="226" y="560">HIS.Debtors</text>
    <rect x="470" y="549" width="74" height="18" rx="4" fill="#e6f4ea"/><text x="507" y="562" font-size="10.5" fill="#2f9e44" text-anchor="middle">SUCCEEDED</text>
    <text x="600" y="560">24-06-2026 04:12</text>
    <text x="780" y="560">Delta</text>
    <text x="900" y="560">1.204</text>
    <text x="980" y="560">86</text>
    <text x="1060" y="560">12</text>
    <text x="1160" y="560" fill="#1c7ed6" text-anchor="end">ⓘ  ↗</text>
    <line x1="206" y1="572" x2="1194" y2="572" stroke="#eef3f4"/>
    <!-- row 2 -->
    <text x="226" y="592">HIS.SalesInvoices</text>
    <rect x="470" y="581" width="74" height="18" rx="4" fill="#fde8e8"/><text x="507" y="594" font-size="10.5" fill="#e03131" text-anchor="middle">FAILED</text>
    <text x="600" y="592">24-06-2026 04:10</text>
    <text x="780" y="592">Full</text>
    <text x="900" y="592">0</text>
    <text x="980" y="592">0</text>
    <text x="1060" y="592">0</text>
    <text x="1160" y="592" fill="#1c7ed6" text-anchor="end">ⓘ  ↗</text>
    <line x1="206" y1="604" x2="1194" y2="604" stroke="#eef3f4"/>
    <!-- row 3 -->
    <text x="226" y="624">STAGE.Articles</text>
    <rect x="470" y="613" width="74" height="18" rx="4" fill="#e6f4ea"/><text x="507" y="626" font-size="10.5" fill="#2f9e44" text-anchor="middle">SUCCEEDED</text>
    <text x="600" y="624">24-06-2026 04:08</text>
    <text x="780" y="624">Delta</text>
    <text x="900" y="624">532</text>
    <text x="980" y="624">14</text>
    <text x="1060" y="624">3</text>
    <text x="1160" y="624" fill="#1c7ed6" text-anchor="end">ⓘ  ↗</text>
    <line x1="206" y1="636" x2="1194" y2="636" stroke="#eef3f4"/>
    <!-- row 4 -->
    <text x="226" y="656">Expose.dimDebtor</text>
    <rect x="470" y="645" width="64" height="18" rx="4" fill="#e1ecf8"/><text x="502" y="658" font-size="10.5" fill="#1c7ed6" text-anchor="middle">RUNNING</text>
    <text x="600" y="656">24-06-2026 04:15</text>
    <text x="780" y="656">Delta</text>
    <text x="900" y="656">—</text>
    <text x="980" y="656">—</text>
    <text x="1060" y="656">—</text>
    <text x="1160" y="656" fill="#1c7ed6" text-anchor="end">ⓘ  ↗</text>
  </g>

  <!-- collapsed source rows: ExactOnline, SQL_CRM -->
  <rect x="206" y="682" width="988" height="34" rx="8" fill="#ffffff" stroke="#e3e8ea"/>
  <text x="224" y="703" font-size="12" fill="#8a9196">▸</text>
  <rect x="240" y="690" width="50" height="18" rx="6" fill="#2f9e44"/>
  <path d="M252 699l4 4 8-8" fill="none" stroke="#ffffff" stroke-width="1.6"/>
  <text x="302" y="703" font-size="12.5" font-weight="600" fill="#1c1c1e">ExactOnline</text>
  <text x="1178" y="703" font-size="11" fill="#8a9196" text-anchor="end">Succeeded: 24 |</text>

  <rect x="206" y="724" width="988" height="34" rx="8" fill="#ffffff" stroke="#e3e8ea"/>
  <text x="224" y="745" font-size="12" fill="#8a9196">▸</text>
  <rect x="240" y="732" width="50" height="18" rx="6" fill="#2f9e44"/>
  <path d="M252 741l4 4 8-8" fill="none" stroke="#ffffff" stroke-width="1.6"/>
  <text x="302" y="745" font-size="12.5" font-weight="600" fill="#1c1c1e">SQL_CRM</text>
  <text x="1178" y="745" font-size="11" fill="#8a9196" text-anchor="end">Succeeded: 9 |</text>

  <!-- ================= CALLOUT MARKERS ================= -->
  <g>
    <circle cx="299.5" cy="130" r="11" fill="#FBAF42"/><text x="299.5" y="134.5" font-size="12" font-weight="700" fill="#1c1c1e" text-anchor="middle">1</text>
    <circle cx="206" cy="196" r="11" fill="#FBAF42"/><text x="206" y="200.5" font-size="12" font-weight="700" fill="#1c1c1e" text-anchor="middle">2</text>
    <circle cx="206" cy="272" r="11" fill="#FBAF42"/><text x="206" y="276.5" font-size="12" font-weight="700" fill="#1c1c1e" text-anchor="middle">3</text>
    <circle cx="700" cy="196" r="11" fill="#FBAF42"/><text x="700" y="200.5" font-size="12" font-weight="700" fill="#1c1c1e" text-anchor="middle">4</text>
    <circle cx="700" cy="334" r="11" fill="#FBAF42"/><text x="700" y="338.5" font-size="12" font-weight="700" fill="#1c1c1e" text-anchor="middle">5</text>
    <circle cx="206" cy="466" r="11" fill="#FBAF42"/><text x="206" y="470.5" font-size="12" font-weight="700" fill="#1c1c1e" text-anchor="middle">6</text>
  </g>

  <!-- callout legend -->
  <g font-size="10" fill="#8a9196">
    <text x="206" y="780">1 Quick-nav tiles (HomeNav)   2 Welcome card   3 Announcements   4 Monitored jobs accordion   5 Error logs (3 days) + count badge   6 Load history (per-source accordion: STAGE / HIS / Expose targets)</text>
  </g>
</svg>
